<svg xmlns="http://www.w3.org/2000/svg" viewBox="0 0 60 60" width="60" height="60">
  <!-- Background circle -->
  <circle cx="30" cy="30" r="28" fill="#6366f1" />

  <!-- Sparkle/cleaning icon -->
  <g fill="#ffffff">
    <!-- Main broom/brush shape -->
    <path d="M20 40 L25 25 L35 25 L40 40 L38 42 L22 42 Z" opacity="0.9"/>

    <!-- Bristles -->
    <rect x="22" y="42" width="2" height="6" rx="1"/>
    <rect x="26" y="42" width="2" height="7" rx="1"/>
    <rect x="30" y="42" width="2" height="6" rx="1"/>
    <rect x="34" y="42" width="2" height="7" rx="1"/>
    <rect x="38" y="42" width="2" height="6" rx="1"/>

    <!-- Handle -->
    <rect x="28" y="15" width="4" height="12" rx="2"/>

    <!-- Sparkles -->
    <circle cx="18" cy="20" r="2"/>
    <circle cx="42" cy="18" r="1.5"/>
    <circle cx="45" cy="28" r="2"/>
    <circle cx="15" cy="32" r="1.5"/>

    <!-- Star sparkle -->
    <path d="M44 22 L45.5 24 L48 24.5 L45.5 25 L44 27 L42.5 25 L40 24.5 L42.5 24 Z"/>
  </g>
</svg>
